<?xml version="1.0" encoding="utf-8"?>
<!-- Generator: Adobe Illustrator 17.0.0, SVG Export Plug-In . SVG Version: 6.00 Build 0)  -->
<!DOCTYPE svg PUBLIC "-//W3C//DTD SVG 1.1//EN" "http://www.w3.org/Graphics/SVG/1.1/DTD/svg11.dtd">
<svg version="1.1" id="图层_1" xmlns="http://www.w3.org/2000/svg" xmlns:xlink="http://www.w3.org/1999/xlink" x="0px" y="0px"
	 width="32px" height="32px" viewBox="0 0 32 32" enable-background="new 0 0 32 32" xml:space="preserve">
<path fill="#FFFFFF" d="M15.884,0.377c0,0-0.001,1.812-0.02,2.719c-0.026,1.258-0.656,2.083-1.71,2.679
	c-1.946,1.1-3.863,2.252-5.823,3.328c-1.646,0.903-2.386,2.263-2.36,4.112c0.028,1.924,0.026,3.849,0.015,5.773
	c-0.012,1.962,0.792,3.429,2.543,4.359c0.426,0.226,0.832,0.491,1.366,0.809c0.025-0.4,0.058-0.69,0.058-0.98
	c0.004-3.009,0.036-6.019-0.014-9.028c-0.022-1.314,0.491-2.2,1.641-2.784c0.745-0.378,1.465-0.807,2.278-1.259
	c1.368,1.656,2.717,3.292,4.2,5.087c0-4.612,0-9.027,0-13.654c1.138,0.65,2.118,1.214,3.102,1.772c2.067,1.17,4.126,2.353,6.206,3.5
	c1.444,0.796,2.258,1.975,2.25,3.63c-0.019,3.916-0.007,7.835-0.178,11.745c-0.036,0.825-0.592,1.954-1.264,2.371
	c-3.935,2.441-7.976,4.712-12.026,7.068c0-2.958,0.096-4.088,2.508-5.482c1.814-1.049,3.626-2.104,5.46-3.119
	c1.289-0.713,1.912-1.718,1.87-3.231c-0.07-2.518-0.063-5.039-0.015-7.558c0.024-1.264-0.456-2.142-1.553-2.734
	c-0.82-0.443-1.618-0.926-2.588-1.484c0,1.625-0.002,3.078,0,4.53c0.003,1.82-0.042,3.641,0.028,5.458
	c0.057,1.455-0.446,2.493-1.783,3.129c-0.655,0.311-1.271,0.706-1.947,1.087c-1.352-1.64-2.677-3.248-4.149-5.033
	c0,4.496,0,8.772,0,13.159c-0.295-0.093-0.489-0.119-0.647-0.209c-2.609-1.491-5.176-3.058-7.829-4.465
	c-2.245-1.192-3.172-2.972-3.112-5.458c0.069-2.903,0.068-5.81-0.008-8.712C2.326,9.23,3.23,7.639,5.212,6.536
	c3.174-1.766,6.307-3.608,9.449-5.431C15.007,0.905,15.884,0.377,15.884,0.377z"/>
</svg>
