<?xml version="1.0" encoding="utf-8"?>
<!-- Generator: Adobe Illustrator 17.0.0, SVG Export Plug-In . SVG Version: 6.00 Build 0)  -->
<!DOCTYPE svg PUBLIC "-//W3C//DTD SVG 1.1//EN" "http://www.w3.org/Graphics/SVG/1.1/DTD/svg11.dtd">
<svg version="1.1" id="图层_1" xmlns="http://www.w3.org/2000/svg" xmlns:xlink="http://www.w3.org/1999/xlink" x="0px" y="0px"
	 width="33px" height="32px" viewBox="0 0 33 32" enable-background="new 0 0 33 32" xml:space="preserve">
<path d="M16.385,0.574c0,0-0.001,1.789-0.02,2.684C16.34,4.5,15.718,5.315,14.677,5.903c-1.922,1.086-3.814,2.224-5.749,3.286
	c-1.626,0.892-2.356,2.234-2.33,4.06c0.027,1.9,0.026,3.8,0.014,5.701c-0.012,1.937,0.782,3.386,2.511,4.304
	c0.421,0.224,0.822,0.485,1.349,0.799c0.025-0.395,0.057-0.681,0.058-0.968c0.004-2.971,0.036-5.943-0.013-8.914
	c-0.022-1.297,0.485-2.172,1.621-2.749c0.736-0.374,1.446-0.797,2.249-1.243c1.35,1.635,2.683,3.25,4.147,5.023
	c0-4.553,0-8.913,0-13.482c1.123,0.642,2.091,1.199,3.063,1.749c2.041,1.156,4.074,2.324,6.128,3.456
	c1.426,0.786,2.23,1.95,2.222,3.584c-0.019,3.867-0.007,7.736-0.176,11.597c-0.036,0.815-0.585,1.93-1.248,2.341
	c-3.885,2.41-7.875,4.653-11.874,6.978c0-2.921,0.095-4.036,2.476-5.413c1.792-1.036,3.58-2.078,5.391-3.079
	c1.273-0.704,1.888-1.697,1.846-3.191c-0.069-2.486-0.062-4.976-0.015-7.462c0.023-1.248-0.45-2.115-1.534-2.7
	c-0.81-0.437-1.598-0.914-2.556-1.465c0,1.605-0.002,3.039,0,4.473c0.003,1.797-0.042,3.595,0.028,5.389
	c0.056,1.437-0.44,2.462-1.761,3.089c-0.647,0.307-1.255,0.697-1.922,1.073c-1.335-1.619-2.643-3.207-4.096-4.969
	c0,4.439,0,8.661,0,12.993c-0.291-0.092-0.483-0.118-0.639-0.207c-2.576-1.472-5.111-3.019-7.73-4.409
	c-2.217-1.177-3.132-2.934-3.073-5.389c0.069-2.866,0.067-5.737-0.007-8.602C2.998,9.315,3.891,7.745,5.848,6.656
	c3.134-1.744,6.227-3.563,9.33-5.362C15.519,1.096,16.385,0.574,16.385,0.574z"/>
</svg>
