<?xml version="1.0" encoding="utf-8"?>
<!-- Generator: Adobe Illustrator 17.0.0, SVG Export Plug-In . SVG Version: 6.00 Build 0)  -->
<!DOCTYPE svg PUBLIC "-//W3C//DTD SVG 1.1//EN" "http://www.w3.org/Graphics/SVG/1.1/DTD/svg11.dtd">
<svg version="1.1" id="图层_1" xmlns="http://www.w3.org/2000/svg" xmlns:xlink="http://www.w3.org/1999/xlink" x="0px" y="0px"
	 width="99px" height="16px" viewBox="0 0 99 16" enable-background="new 0 0 99 16" xml:space="preserve">
<g>
	<path d="M1.906,0.859h10.3v2h-7.96v3.96h7.48v2h-7.48v4.32h8.3v2H1.906V0.859z"/>
	<path d="M13.646,0.859h11.7v2h-4.68v12.28h-2.34V2.859h-4.68V0.859z"/>
	<path d="M27.045,0.859h2.34l7.06,10.3h0.08v-10.3h2.36v14.28h-2.28l-7.14-10.44h-0.08v10.44h-2.34V0.859z"/>
	<path d="M50.666,1.62c1,0.746,1.573,1.899,1.72,3.46h-2.319c-0.201-0.881-0.568-1.514-1.101-1.9
		c-0.507-0.387-1.293-0.58-2.359-0.58c-0.907,0-1.594,0.127-2.061,0.38c-0.586,0.294-0.88,0.787-0.88,1.48
		c0,0.627,0.333,1.113,1,1.46c0.32,0.173,1.134,0.467,2.44,0.88c1.88,0.573,3.126,1.04,3.74,1.399c1.24,0.733,1.86,1.761,1.86,3.08
		c0,1.28-0.5,2.294-1.5,3.04c-1.014,0.733-2.427,1.101-4.241,1.101c-1.76,0-3.133-0.34-4.12-1.021
		c-1.213-0.84-1.867-2.166-1.96-3.979h2.32c0.16,1.093,0.547,1.866,1.16,2.319c0.573,0.414,1.439,0.62,2.6,0.62
		c1.04,0,1.867-0.173,2.48-0.52c0.614-0.373,0.92-0.847,0.92-1.42c0-0.761-0.448-1.36-1.34-1.8c-0.32-0.16-1.247-0.474-2.78-0.94
		c-1.773-0.56-2.867-0.96-3.28-1.2c-1.094-0.653-1.64-1.613-1.64-2.88c0-1.28,0.533-2.273,1.6-2.979
		c0.986-0.693,2.253-1.04,3.8-1.04C48.418,0.58,49.732,0.927,50.666,1.62z"/>
	<path d="M53.405,0.859h2.641l2.68,10.86h0.08l2.82-10.86h2.42l2.819,10.86h0.08l2.681-10.86h2.64l-4.12,14.28h-2.479l-2.78-10.74
		h-0.08l-2.8,10.74h-2.5L53.405,0.859z"/>
	<path d="M77.825,0.859h2.66l5.46,14.28h-2.5l-1.3-3.58h-5.98l-1.3,3.58h-2.5L77.825,0.859z M76.865,9.64h4.58l-2.24-6.26h-0.08
		L76.865,9.64z"/>
	<path d="M87.346,0.859h5.92c3.453,0,5.18,1.46,5.18,4.38c0,2.947-1.74,4.42-5.22,4.42h-3.54v5.48h-2.34V0.859z M89.686,2.859v4.8
		h3.399c1.027,0,1.787-0.187,2.28-0.56c0.48-0.387,0.72-1.007,0.72-1.86c0-0.84-0.246-1.446-0.739-1.819
		c-0.467-0.373-1.221-0.561-2.261-0.561H89.686z"/>
</g>
</svg>
